<?xml version="1.0" encoding="utf-8"?>
<!-- Generator: Adobe Illustrator 16.0.0, SVG Export Plug-In . SVG Version: 6.00 Build 0)  -->
<!DOCTYPE svg PUBLIC "-//W3C//DTD SVG 1.1//EN" "http://www.w3.org/Graphics/SVG/1.1/DTD/svg11.dtd">
<svg version="1.1" id="Layer_1" xmlns="http://www.w3.org/2000/svg" xmlns:xlink="http://www.w3.org/1999/xlink" x="0px" y="0px"
	 width="400px" height="400px" viewBox="0 0 400 400" enable-background="new 0 0 400 400" xml:space="preserve">
<g>
	<path d="M281.445,138.33c-0.978,0-2.223,0.073-3.735,0.22c-1.516,0.146-3.175,0.439-4.98,0.879
		c-1.809,0.439-3.662,1.124-5.566,2.051c-1.904,0.929-3.688,2.174-5.347,3.735c-1.662,1.465-3.42,3.346-5.273,5.64
		c-1.856,2.296-4.006,5.054-6.445,8.276l-39.111,51.123v31.787c0,4.102,0.315,7.447,0.952,10.034
		c0.634,2.589,1.487,4.42,2.563,5.493c2.732,2.637,7.519,3.955,14.355,3.955h5.273v5.566h-67.969v-5.566h5.566
		c3.417,0,6.273-0.414,8.569-1.245c2.293-0.829,4.223-2.124,5.786-3.882c1.465-1.854,2.197-6.64,2.197-14.355v-30.322
		l-43.506-56.104c-2.541-3.223-4.738-5.956-6.592-8.203c-1.856-2.245-3.907-4.149-6.152-5.713c-2.051-1.268-4.519-2.147-7.397-2.637
		c-2.882-0.487-5.933-0.732-9.155-0.732v-5.42h68.555v5.42h-3.516c-1.076,0-2.417,0.025-4.028,0.073
		c-1.611,0.05-3.223,0.27-4.834,0.659c-1.611,0.392-2.98,1.076-4.102,2.051c-1.124,0.978-1.685,2.344-1.685,4.102
		c0,1.076,0.561,2.735,1.685,4.98c1.121,2.248,2.952,4.933,5.493,8.057l32.991,43.066l31.901-41.309
		c3.417-4.589,5.662-8.276,6.738-11.06c1.073-2.783,0.535-5.443-1.611-7.983c-0.879-1.172-2.321-1.904-4.321-2.197
		c-2.003-0.293-5.299-0.439-9.888-0.439v-5.42h55.664v5.42H281.445z"/>
</g>
</svg>
